<?xml version="1.0" encoding="UTF-8" standalone="no"?>
<!-- Created with Inkscape (http://www.inkscape.org/) -->

<svg
   version="1.1"
   id="svg392"
   width="1781.3333"
   height="576"
   viewBox="0 0 1781.3333 576"
   sodipodi:docname="rock_paper_scissors-02.svg"
   inkscape:export-filename="../rock.svg"
   inkscape:export-xdpi="101.2"
   inkscape:export-ydpi="101.2"
   inkscape:version="1.2.2 (b0a8486, 2022-12-01)"
   xmlns:inkscape="http://www.inkscape.org/namespaces/inkscape"
   xmlns:sodipodi="http://sodipodi.sourceforge.net/DTD/sodipodi-0.dtd"
   xmlns="http://www.w3.org/2000/svg"
   xmlns:svg="http://www.w3.org/2000/svg">
  <defs
     id="defs396" />
  <sodipodi:namedview
     id="namedview394"
     pagecolor="#ffffff"
     bordercolor="#000000"
     borderopacity="0.25"
     inkscape:showpageshadow="2"
     inkscape:pageopacity="0.0"
     inkscape:pagecheckerboard="0"
     inkscape:deskcolor="#d1d1d1"
     showgrid="false"
     inkscape:zoom="0.90347866"
     inkscape:cx="1591.0725"
     inkscape:cy="-788.61852"
     inkscape:window-width="1419"
     inkscape:window-height="835"
     inkscape:window-x="0"
     inkscape:window-y="0"
     inkscape:window-maximized="0"
     inkscape:current-layer="g402">
    <inkscape:page
       x="0"
       y="0"
       id="page398"
       width="1781.3333"
       height="576" />
  </sodipodi:namedview>
  <g
     id="g400"
     inkscape:groupmode="layer"
     inkscape:label="Page 1"
     transform="matrix(1.3333333,0,0,-1.3333333,0,576)">
    <g
       id="g402"
       transform="scale(0.1)">
      <rect
         style="fill:#000000;fill-opacity:1;stroke:#000000;stroke-width:18.652;stroke-dasharray:18.652, 74.6079;stroke-dashoffset:63.4167;stroke-opacity:1;paint-order:stroke fill markers"
         id="rect1681"
         width="13935.431"
         height="4400.6621"
         x="25.291122"
         y="-4320"
         transform="scale(1,-1)"
         sodipodi:insensitive="true" />
      <path
         d="m 7170.62,2359.85 h 592.41 c 140.53,0 254.47,-113.93 254.47,-254.47 0,-140.54 -113.94,-254.47 -254.47,-254.47 h -592.41 c -140.54,0 -254.47,113.93 -254.47,254.47 0,140.54 113.93,254.47 254.47,254.47 z m 0,36.64 h 277.88 v 567.98 c 0,139.42 -113.02,252.43 -252.43,252.43 -139.42,0 -252.44,-113.01 -252.44,-252.43 V 2287.2 c 53.4,66.53 135.24,109.29 226.99,109.29 z m -506.91,-502.83 v 0 c 98.61,0 183.79,56.66 225.33,139.09 -6,23.26 -9.54,47.51 -9.54,72.63 0,51.17 13.37,99.22 36.65,141.05 v 718.04 c 0,139.42 -113.02,252.43 -252.44,252.43 v 0 c -139.41,0 -252.43,-113.01 -252.43,-252.43 v -818.38 c 0,-139.41 113.02,-252.43 252.43,-252.43 z m -536.42,0 c 139.42,0 252.44,113.02 252.44,252.43 v 818.38 c 0,139.42 -113.02,252.43 -252.44,252.43 -139.41,0 -252.43,-113.01 -252.43,-252.43 v -818.38 c 0,-139.41 113.02,-252.43 252.43,-252.43 z m 1635.74,-79.39 h -388.61 v -117.13 l -17.35,-0.93 c -7.28,-0.38 -728.98,-43.01 -728.98,-393.94 h -36.64 c 0,357.49 629.94,420.77 746.32,429.4 v 82.6 h -167.15 c -118.42,0 -220.35,71.17 -265.79,172.89 -51.77,-78.29 -140.43,-130.14 -241.11,-130.14 -121.48,0 -225.5,75.41 -268.22,181.8 -42.71,-106.39 -146.73,-181.8 -268.21,-181.8 -119.42,0 -222.16,72.8 -266.18,176.35 -44.01,-103.55 -146.74,-176.35 -266.16,-176.35 -108.42,0 -202.98,60.07 -252.44,148.6 V 1639.19 C 5342.51,900.512 5941.32,301.695 6680,301.695 v 0 c 738.68,0 1337.5,598.817 1337.5,1337.495 v 325.15 c -49.75,-89.39 -145.12,-150.07 -254.47,-150.07 z m -2168.09,79.39 v 0 c 139.42,0 252.44,113.02 252.44,252.43 v 818.38 c 0,139.42 -113.02,252.43 -252.44,252.43 v 0 c -139.42,0 -252.43,-113.01 -252.43,-252.43 v -818.38 c 0,-139.41 113.01,-252.43 252.43,-252.43"
         style="fill:#ffffff;fill-opacity:1;fill-rule:nonzero;stroke:none"
         id="path404"
         inkscape:export-filename="../rock.svg"
         inkscape:export-xdpi="101.2"
         inkscape:export-ydpi="101.2" />
      <path
         d="m 3139.3,2250.08 c 140.54,0 254.47,-113.93 254.47,-254.47 0,-140.54 -113.93,-254.47 -254.47,-254.47 h -592.41 c -140.54,0 -254.47,113.93 -254.47,254.47 0,140.54 113.93,254.47 254.47,254.47 z M 2039.99,1783.89 v 0 c 98.6,0 183.78,56.67 225.33,139.09 -6.01,23.27 -9.55,47.52 -9.55,72.63 0,51.17 13.37,99.23 36.65,141.05 15.42,27.27 27.49,40.77 27.49,40.77 53.39,66.53 135.23,109.29 226.98,109.29 h 277.88 l 395,1420.89 c 37.35,134.33 -41.27,273.48 -175.59,310.83 -134.32,37.34 -273.48,-41.28 -310.82,-175.6 L 2319.91,2355.59 h -27.49 v 499.12 1020.93 c 0,139.41 -113.02,252.43 -252.43,252.43 -139.42,0 -252.44,-113.02 -252.44,-252.43 V 2854.71 2036.33 c 0,-139.42 113.02,-252.44 252.44,-252.44 z m -536.43,0 c 139.42,0 252.44,113.02 252.44,252.44 v 818.38 c 0,139.41 -113.02,252.43 -252.44,252.43 -139.41,0 -252.43,-113.02 -252.43,-252.43 v -818.38 c 0,-139.42 113.02,-252.44 252.43,-252.44 z M 3139.3,1704.5 h -388.61 v -117.12 l -17.34,-0.93 c -7.29,-0.38 -728.99,-43.01 -728.99,-393.94 h -36.64 c 0,357.49 629.94,420.77 746.33,429.39 v 82.6 h -167.16 c -118.41,0 -220.35,71.17 -265.78,172.89 -51.78,-78.29 -140.44,-130.14 -241.12,-130.14 -121.48,0 -225.5,75.41 -268.21,181.8 -42.71,-106.39 -146.74,-181.8 -268.22,-181.8 -119.42,0 -222.15,72.8 -266.17,176.35 -44.02,-103.55 -146.75,-176.35 -266.171,-176.35 -108.418,0 -202.973,60.07 -252.442,148.6 v -366.43 c 0,-738.674 598.813,-1337.49 1337.493,-1337.49 v 0 c 738.68,0 1337.5,598.816 1337.5,1337.49 v 325.15 C 3344.02,1765.18 3248.66,1704.5 3139.3,1704.5 Z m -2168.085,79.39 v 0 c 139.415,0 252.435,113.02 252.435,252.44 v 818.38 c 0,139.41 -113.02,252.43 -252.435,252.43 v 0 c -139.418,0 -252.438,-113.02 -252.438,-252.43 v -818.38 c 0,-139.42 113.02,-252.44 252.438,-252.44"
         style="fill:#ffffff;fill-opacity:1;fill-rule:nonzero;stroke:#000000;stroke-opacity:1;stroke-width:29.49750074;stroke-dasharray:none"
         id="path406" />
      <path
         d="M 12508.9,2538.78 V 1486.86 c 0,-738.672 -598.8,-1337.489 -1337.5,-1337.489 v 0 c -738.7,0 -1337.52,598.817 -1337.52,1337.489 v 366.43 140.48 71.25 237.17 509.95 308.42 c 0,139.42 113.02,252.44 252.42,252.44 v 0 c 139.4,0 252.5,-113.02 252.5,-252.44 v -308.42 -509.95 -177.9 l 27.4,3.23 v 403.69 280.93 100.77 436.68 381.7 c 0,139.42 113.1,252.44 252.5,252.44 139.4,0 252.4,-113.02 252.4,-252.44 v -381.7 -436.68 -100.77 -280.93 -344.42 l 31.6,3.7 v 380.42 241.23 342.01 235.14 583.24 c 0,139.42 113,252.43 252.4,252.43 v 0 c 139.4,0 252.4,-113.01 252.4,-252.43 v -583.24 -134.8 -442.35 -140.9 -421.49 l 27.5,3.23 v 239.17 319.99 208.29 148.99 528.28 c 0,139.42 113,252.44 252.4,252.44 139.5,0 252.5,-113.02 252.5,-252.44 v -528.28 -39.7 -317.58 -210.7 -357.28 -649.23 c -102.2,0.9 -424.9,-9.89 -598.7,-174.95 -74.5,-70.78 -112.3,-160.94 -112.3,-268 h 59.8 c 0,89.97 31.5,165.51 93.6,224.52 185.3,176.05 582,158.02 586,157.83 l 31.4,-1.6 0.2,413.64 v 592.41 c 0,140.54 114,254.47 254.5,254.47 140.5,0 254.5,-113.93 254.5,-254.47"
         style="fill:#ffffff;fill-opacity:1;fill-rule:nonzero;stroke:none"
         id="path408" />
      <path
         d="m 5823.2558,6776.7224 c 140.54,0 254.47,-113.93 254.47,-254.47 0,-140.54 -113.93,-254.47 -254.47,-254.47 h -592.41 c -140.54,0 -254.47,113.93 -254.47,254.47 0,140.54 113.93,254.47 254.47,254.47 z m -1099.31,-466.19 v 0 c 98.6,0 183.78,56.67 225.33,139.09 -6.01,23.27 -9.55,47.52 -9.55,72.63 0,51.17 13.37,99.23 36.65,141.05 15.42,27.27 27.49,40.77 27.49,40.77 53.39,66.53 135.23,109.29 226.98,109.29 h 277.88 l 395,1420.89 c 37.35,134.33 -41.27,273.48 -175.59,310.83 -134.32,37.34 -273.48,-41.28 -310.82,-175.6 l -413.45,-1487.25 h -27.49 v 499.12 1020.93 c 0,139.41 -113.02,252.43 -252.43,252.43 -139.42,0 -252.44,-113.02 -252.44,-252.43 v -1020.93 -818.38 c 0,-139.42 113.02,-252.44 252.44,-252.44 z m -536.43,0 c 139.42,0 252.44,113.02 252.44,252.44 v 818.38 c 0,139.41 -113.02,252.43 -252.44,252.43 -139.41,0 -252.43,-113.02 -252.43,-252.43 v -818.38 c 0,-139.42 113.02,-252.44 252.43,-252.44 z m 1635.74,-79.39 h -388.61 v -117.12 l -17.34,-0.93 c -7.29,-0.38 -728.99,-43.01 -728.99,-393.94 h -36.64 c 0,357.49 629.94,420.77 746.33,429.39 v 82.6 h -167.16 c -118.41,0 -220.35,71.17 -265.78,172.89 -51.78,-78.29 -140.44,-130.14 -241.12,-130.14 -121.48,0 -225.5,75.41 -268.21,181.8 -42.71,-106.39 -146.74,-181.8 -268.22,-181.8 -119.42,0 -222.15,72.8 -266.17,176.35 -44.02,-103.55 -146.75,-176.35 -266.171,-176.35 -108.418,0 -202.973,60.07 -252.442,148.6 v -366.43 c 0,-738.674 598.813,-1337.49 1337.493,-1337.49 v 0 c 738.68,0 1337.5,598.816 1337.5,1337.49 v 325.15 c -49.75,-89.39 -145.11,-150.07 -254.47,-150.07 z m -2168.085,79.39 v 0 c 139.415,0 252.435,113.02 252.435,252.44 v 818.38 c 0,139.41 -113.02,252.43 -252.435,252.43 v 0 c -139.418,0 -252.438,-113.02 -252.438,-252.43 v -818.38 c 0,-139.42 113.02,-252.44 252.438,-252.44"
         style="fill:#ffffff;fill-opacity:1;fill-rule:nonzero;stroke:#000000;stroke-width:29.4975;stroke-dasharray:none;stroke-opacity:1;paint-order:stroke fill markers"
         id="path406-5"
         inkscape:export-filename="../path406-5.svg"
         inkscape:export-xdpi="101.2"
         inkscape:export-ydpi="101.2" />
      <path
         d="m 13228.585,11168.441 -2.809,592.404 c -0.666,140.528 -115.135,253.927 -255.674,253.26 -140.538,-0.666 -253.927,-115.145 -253.26,-255.673 l 2.808,-592.404 c 0.667,-140.538 115.135,-253.927 255.674,-253.26 140.538,0.666 253.927,115.135 253.261,255.673 z m 36.639,0.174 -1.317,277.877 567.973,2.693 c 139.419,0.661 252.963,-111.822 253.624,-251.23 0.661,-139.419 -111.812,-252.973 -251.23,-253.634 l -677.262,-3.211 c 66.276,53.714 108.647,135.756 108.212,227.505 z m -500.421,-509.288 v 0 c -0.467,98.609 55.788,184.056 138.02,225.987 23.288,-5.89 47.555,-9.315 72.675,-9.196 51.169,0.243 99.155,13.84 140.874,37.319 l 718.032,3.404 c 139.419,0.661 252.963,-111.822 253.624,-251.24 v 0 c 0.661,-139.409 -111.812,-252.963 -251.23,-253.624 l -818.371,-3.881 c -139.408,-0.661 -252.963,111.822 -253.624,251.231 z m 2.543,-536.414 c -0.661,139.418 111.822,252.973 251.231,253.634 l 818.371,3.88 c 139.418,0.661 252.963,-111.822 253.624,-251.24 0.66,-139.4089 -111.812,-252.9634 -251.231,-253.6244 l -818.371,-3.8801 c -139.408,-0.661 -252.963,111.8219 -253.624,251.2305 z m -87.144,1635.345 1.842,-388.606 -117.128,-0.555 -0.848,-17.354 c -0.345,-7.282 -39.553,-729.176 -390.479,-730.84 l 0.173,-36.639 c 357.486,1.695 417.779,631.928 425.857,748.347 l 82.599,0.392 0.793,-167.148 c 0.561,-118.419 72.214,-220.01 174.148,-264.968 -78.044,-52.14 -129.473,-141.045 -128.995,-241.724 0.575,-121.479 76.478,-225.14 183.069,-267.355 -106.186,-43.214 -181.102,-147.59 -180.526,-269.069 0.566,-119.419 73.852,-221.8122 177.61,-265.3408 -103.34,-44.5004 -175.652,-147.5744 -175.086,-266.9931 0.514,-108.4188 61.031,-202.6929 149.795,-251.7326 l -366.426,-1.7373 c -738.669,-3.5022 -1340.319,592.462 -1343.821,1331.1338 v 0 c -3.502,738.672 592.469,1340.324 1331.138,1343.826 l 325.147,1.542 c -89.153,-50.174 -149.38,-145.83 -148.862,-255.179 z m 89.668,-2167.6892 v 0 c -0.661,139.4185 111.822,252.973 251.231,253.634 l 818.37,3.8801 c 139.419,0.661 252.963,-111.822 253.624,-251.2404 v 0 c 0.661,-139.4184 -111.811,-252.9629 -251.23,-253.624 l -818.371,-3.88 c -139.408,-0.661 -252.963,111.8119 -253.624,251.2303"
         style="fill:#ffffff;fill-opacity:1;fill-rule:nonzero;stroke:#000000;stroke-width:29.4975;stroke-dasharray:none;stroke-opacity:1;paint-order:stroke fill markers"
         id="path404-2"
         inkscape:export-filename="../play1.svg"
         inkscape:export-xdpi="101.2"
         inkscape:export-ydpi="101.2" />
      <path
         d="m 7996.6052,13619.774 v -1051.92 c 0,-738.672 -598.8,-1337.489 -1337.5,-1337.489 v 0 c -738.7,0 -1337.52,598.817 -1337.52,1337.489 v 366.43 140.48 71.25 237.17 509.95 308.42 c 0,139.42 113.02,252.44 252.42,252.44 v 0 c 139.4,0 252.5,-113.02 252.5,-252.44 v -308.42 -509.95 -177.9 l 27.4,3.23 v 403.69 280.93 100.77 436.68 381.7 c 0,139.42 113.1,252.44 252.5,252.44 139.4,0 252.4,-113.02 252.4,-252.44 v -381.7 -436.68 -100.77 -280.93 -344.42 l 31.6,3.7 v 380.42 241.23 342.01 235.14 583.24 c 0,139.42 113,252.43 252.4,252.43 v 0 c 139.4,0 252.4,-113.01 252.4,-252.43 v -583.24 -134.8 -442.35 -140.9 -421.49 l 27.5,3.23 v 239.17 319.99 208.29 148.99 528.28 c 0,139.42 113,252.44 252.4,252.44 139.5,0 252.5,-113.02 252.5,-252.44 v -528.28 -39.7 -317.58 -210.7 -357.28 -649.23 c -102.2,0.9 -424.9,-9.89 -598.7,-174.95 -74.5,-70.78 -112.3,-160.94 -112.3,-268 h 59.8 c 0,89.97 31.5,165.51 93.6,224.52 185.3,176.05 582,158.02 586,157.83 l 31.4,-1.6 0.2,413.64 v 592.41 c 0,140.54 114,254.47 254.5,254.47 140.5,0 254.5,-113.93 254.5,-254.47"
         style="fill:#ffffff;fill-opacity:1;fill-rule:nonzero;stroke:#030303;stroke-opacity:0.73333335;stroke-width:30.24750076;stroke-dasharray:none;paint-order:stroke fill markers"
         id="path408-7" />
    </g>
  </g>
</svg>
