<?xml version="1.0" encoding="UTF-8" standalone="no"?>
<!-- Created with Inkscape (http://www.inkscape.org/) -->

<svg
   version="1.1"
   id="svg392"
   width="393.31091"
   height="360.89142"
   viewBox="0 0 393.31092 360.89142"
   sodipodi:docname="rock_paper_scissors-02.eps"
   inkscape:export-filename="../rock.svg"
   inkscape:export-xdpi="101.2"
   inkscape:export-ydpi="101.2"
   xmlns:inkscape="http://www.inkscape.org/namespaces/inkscape"
   xmlns:sodipodi="http://sodipodi.sourceforge.net/DTD/sodipodi-0.dtd"
   xmlns="http://www.w3.org/2000/svg"
   xmlns:svg="http://www.w3.org/2000/svg">
  <defs
     id="defs396" />
  <sodipodi:namedview
     id="namedview394"
     pagecolor="#ffffff"
     bordercolor="#000000"
     borderopacity="0.25"
     inkscape:showpageshadow="2"
     inkscape:pageopacity="0.0"
     inkscape:pagecheckerboard="0"
     inkscape:deskcolor="#d1d1d1"
     showgrid="false" />
  <g
     id="g400"
     inkscape:groupmode="layer"
     inkscape:label="Page 1"
     transform="matrix(1.3333333,0,0,-1.3333333,-1487.7353,1603.8475)">
    <g
       id="g402"
       transform="scale(0.1)">
      <path
         d="m 12037.277,11168.441 2.809,592.404 c 0.666,140.528 115.135,253.927 255.674,253.26 140.538,-0.666 253.927,-115.145 253.26,-255.673 l -2.808,-592.404 c -0.667,-140.538 -115.135,-253.927 -255.674,-253.26 -140.538,0.666 -253.927,115.135 -253.261,255.673 z m -36.639,0.174 1.317,277.877 -567.973,2.693 c -139.419,0.661 -252.963,-111.822 -253.624,-251.23 -0.661,-139.419 111.812,-252.973 251.23,-253.634 l 677.262,-3.211 c -66.276,53.714 -108.647,135.756 -108.212,227.505 z m 500.421,-509.288 v 0 c 0.467,98.609 -55.788,184.056 -138.02,225.987 -23.288,-5.89 -47.555,-9.315 -72.675,-9.196 -51.169,0.243 -99.155,13.84 -140.874,37.319 l -718.032,3.404 c -139.419,0.661 -252.963,-111.822 -253.624,-251.24 v 0 c -0.661,-139.409 111.812,-252.963 251.23,-253.624 l 818.371,-3.881 c 139.408,-0.661 252.963,111.822 253.624,251.231 z m -2.543,-536.414 c 0.661,139.418 -111.822,252.973 -251.231,253.634 l -818.371,3.88 c -139.418,0.661 -252.963,-111.822 -253.624,-251.24 -0.66,-139.4089 111.812,-252.9634 251.231,-253.6244 l 818.371,-3.8801 c 139.408,-0.661 252.963,111.8219 253.624,251.2305 z m 87.144,1635.345 -1.842,-388.606 117.128,-0.555 0.848,-17.354 c 0.345,-7.282 39.553,-729.176 390.479,-730.84 l -0.173,-36.639 c -357.486,1.695 -417.779,631.928 -425.857,748.347 l -82.599,0.392 -0.793,-167.148 c -0.561,-118.419 -72.214,-220.01 -174.148,-264.968 78.044,-52.14 129.473,-141.045 128.995,-241.724 -0.575,-121.479 -76.478,-225.14 -183.069,-267.355 106.186,-43.214 181.102,-147.59 180.526,-269.069 -0.566,-119.419 -73.852,-221.8122 -177.61,-265.3408 103.34,-44.5004 175.652,-147.5744 175.086,-266.9931 -0.514,-108.4188 -61.031,-202.6929 -149.795,-251.7326 l 366.426,-1.7373 c 738.669,-3.5022 1340.319,592.462 1343.821,1331.1338 v 0 c 3.502,738.672 -592.469,1340.324 -1331.138,1343.826 l -325.147,1.542 c 89.153,-50.174 149.38,-145.83 148.862,-255.179 z m -89.668,-2167.6892 v 0 c 0.661,139.4185 -111.822,252.973 -251.231,253.634 l -818.37,3.8801 c -139.419,0.661 -252.963,-111.822 -253.624,-251.2404 v 0 c -0.661,-139.4184 111.811,-252.9629 251.23,-253.624 l 818.371,-3.88 c 139.408,-0.661 252.963,111.8119 253.624,251.2303"
         style="fill:#ffffff;fill-opacity:1;fill-rule:nonzero;stroke:#000000;stroke-width:29.4975;stroke-dasharray:none;stroke-opacity:1;paint-order:stroke fill markers"
         id="path404-2"
         inkscape:export-filename="../rock.svg"
         inkscape:export-xdpi="101.2"
         inkscape:export-ydpi="101.2" />
    </g>
  </g>
</svg>
