<?xml version="1.0" encoding="UTF-8" standalone="no"?>
<!-- Created with Inkscape (http://www.inkscape.org/) -->

<svg
   version="1.1"
   id="svg392"
   width="360.59839"
   height="392.62701"
   viewBox="0 0 360.5984 392.62701"
   sodipodi:docname="rock_paper_scissors-02.eps"
   inkscape:export-filename="../rock.svg"
   inkscape:export-xdpi="101.2"
   inkscape:export-ydpi="101.2"
   xmlns:inkscape="http://www.inkscape.org/namespaces/inkscape"
   xmlns:sodipodi="http://sodipodi.sourceforge.net/DTD/sodipodi-0.dtd"
   xmlns="http://www.w3.org/2000/svg"
   xmlns:svg="http://www.w3.org/2000/svg">
  <defs
     id="defs396" />
  <sodipodi:namedview
     id="namedview394"
     pagecolor="#ffffff"
     bordercolor="#000000"
     borderopacity="0.25"
     inkscape:showpageshadow="2"
     inkscape:pageopacity="0.0"
     inkscape:pagecheckerboard="0"
     inkscape:deskcolor="#d1d1d1"
     showgrid="false" />
  <g
     id="g400"
     inkscape:groupmode="layer"
     inkscape:label="Page 1"
     transform="matrix(1.3333333,0,0,-1.3333333,-1504.4338,1619.6448)">
    <g
       id="g402"
       transform="scale(0.1)">
      <path
         d="m 13126.112,11275.537 h 592.41 c 140.53,0 254.47,-113.93 254.47,-254.47 0,-140.54 -113.94,-254.47 -254.47,-254.47 h -592.41 c -140.54,0 -254.47,113.93 -254.47,254.47 0,140.54 113.93,254.47 254.47,254.47 z m 0,36.64 h 277.88 v 567.98 c 0,139.42 -113.02,252.43 -252.43,252.43 -139.42,0 -252.44,-113.01 -252.44,-252.43 v -677.27 c 53.4,66.53 135.24,109.29 226.99,109.29 z m -506.91,-502.83 v 0 c 98.61,0 183.79,56.66 225.33,139.09 -6,23.26 -9.54,47.51 -9.54,72.63 0,51.17 13.37,99.22 36.65,141.05 v 718.04 c 0,139.42 -113.02,252.43 -252.44,252.43 v 0 c -139.41,0 -252.43,-113.01 -252.43,-252.43 v -818.38 c 0,-139.41 113.02,-252.43 252.43,-252.43 z m -536.42,0 c 139.42,0 252.44,113.02 252.44,252.43 v 818.38 c 0,139.42 -113.02,252.43 -252.44,252.43 -139.41,0 -252.43,-113.01 -252.43,-252.43 v -818.38 c 0,-139.41 113.02,-252.43 252.43,-252.43 z m 1635.74,-79.39 h -388.61 v -117.13 l -17.35,-0.93 c -7.28,-0.38 -728.98,-43.01 -728.98,-393.94 h -36.64 c 0,357.49 629.94,420.77 746.32,429.4 v 82.6 h -167.15 c -118.42,0 -220.35,71.17 -265.79,172.89 -51.77,-78.29 -140.43,-130.14 -241.11,-130.14 -121.48,0 -225.5,75.41 -268.22,181.8 -42.71,-106.39 -146.73,-181.8 -268.21,-181.8 -119.42,0 -222.16,72.8 -266.18,176.35 -44.01,-103.55 -146.74,-176.35 -266.16,-176.35 -108.42,0 -202.98,60.07 -252.44,148.6 v -366.43 c 0,-738.6778 598.81,-1337.4948 1337.49,-1337.4948 v 0 c 738.68,0 1337.5,598.817 1337.5,1337.4948 v 325.15 c -49.75,-89.39 -145.12,-150.07 -254.47,-150.07 z m -2168.09,79.39 v 0 c 139.42,0 252.44,113.02 252.44,252.43 v 818.38 c 0,139.42 -113.02,252.43 -252.44,252.43 v 0 c -139.42,0 -252.43,-113.01 -252.43,-252.43 v -818.38 c 0,-139.41 113.01,-252.43 252.43,-252.43"
         style="fill:#ffffff;fill-opacity:1;fill-rule:nonzero;stroke:#000000;stroke-width:29.4975;stroke-dasharray:none;stroke-opacity:1;paint-order:stroke fill markers"
         id="path404-2"
         inkscape:export-filename="../rock.svg"
         inkscape:export-xdpi="101.2"
         inkscape:export-ydpi="101.2" />
    </g>
  </g>
</svg>
